<?xml version="1.0" encoding="UTF-8"?>

<svg version="1.2" baseProfile="tiny" width="210mm" height="210mm" viewBox="0 0 21000 21000" preserveAspectRatio="xMidYMid" fill-rule="evenodd" stroke-width="28.222" stroke-linejoin="round" xmlns="http://www.w3.org/2000/svg" xmlns:ooo="http://xml.openoffice.org/svg/export" xmlns:xlink="http://www.w3.org/1999/xlink" xml:space="preserve">
 <defs class="ClipPathGroup">
  <clipPath id="presentation_clip_path" clipPathUnits="userSpaceOnUse">
   <rect x="0" y="0" width="21000" height="21000"/>
  </clipPath>
 </defs>
 <defs class="TextShapeIndex">
  <g ooo:slide="id1" ooo:id-list="id3 id4 id5 id6 id7 id8 id9 id10 id11 id12 id13 id14 id15 id16 id17 id18 id19 id20 id21 id22 id23 id24 id25"/>
 </defs>
 <defs class="EmbeddedBulletChars">
  <g id="bullet-char-template(57356)" transform="scale(0.00048828125,-0.00048828125)">
   <path d="M 580,1141 L 1163,571 580,0 -4,571 580,1141 Z"/>
  </g>
  <g id="bullet-char-template(57354)" transform="scale(0.00048828125,-0.00048828125)">
   <path d="M 8,1128 L 1137,1128 1137,0 8,0 8,1128 Z"/>
  </g>
  <g id="bullet-char-template(10146)" transform="scale(0.00048828125,-0.00048828125)">
   <path d="M 174,0 L 602,739 174,1481 1456,739 174,0 Z M 1358,739 L 309,1346 659,739 1358,739 Z"/>
  </g>
  <g id="bullet-char-template(10132)" transform="scale(0.00048828125,-0.00048828125)">
   <path d="M 2015,739 L 1276,0 717,0 1260,543 174,543 174,936 1260,936 717,1481 1274,1481 2015,739 Z"/>
  </g>
  <g id="bullet-char-template(10007)" transform="scale(0.00048828125,-0.00048828125)">
   <path d="M 0,-2 C -7,14 -16,27 -25,37 L 356,567 C 262,823 215,952 215,954 215,979 228,992 255,992 264,992 276,990 289,987 310,991 331,999 354,1012 L 381,999 492,748 772,1049 836,1024 860,1049 C 881,1039 901,1025 922,1006 886,937 835,863 770,784 769,783 710,716 594,584 L 774,223 C 774,196 753,168 711,139 L 727,119 C 717,90 699,76 672,76 641,76 570,178 457,381 L 164,-76 C 142,-110 111,-127 72,-127 30,-127 9,-110 8,-76 1,-67 -2,-52 -2,-32 -2,-23 -1,-13 0,-2 Z"/>
  </g>
  <g id="bullet-char-template(10004)" transform="scale(0.00048828125,-0.00048828125)">
   <path d="M 285,-33 C 182,-33 111,30 74,156 52,228 41,333 41,471 41,549 55,616 82,672 116,743 169,778 240,778 293,778 328,747 346,684 L 369,508 C 377,444 397,411 428,410 L 1163,1116 C 1174,1127 1196,1133 1229,1133 1271,1133 1292,1118 1292,1087 L 1292,965 C 1292,929 1282,901 1262,881 L 442,47 C 390,-6 338,-33 285,-33 Z"/>
  </g>
  <g id="bullet-char-template(9679)" transform="scale(0.00048828125,-0.00048828125)">
   <path d="M 813,0 C 632,0 489,54 383,161 276,268 223,411 223,592 223,773 276,916 383,1023 489,1130 632,1184 813,1184 992,1184 1136,1130 1245,1023 1353,916 1407,772 1407,592 1407,412 1353,268 1245,161 1136,54 992,0 813,0 Z"/>
  </g>
  <g id="bullet-char-template(8226)" transform="scale(0.00048828125,-0.00048828125)">
   <path d="M 346,457 C 273,457 209,483 155,535 101,586 74,649 74,723 74,796 101,859 155,911 209,963 273,989 346,989 419,989 480,963 531,910 582,859 608,796 608,723 608,648 583,586 532,535 482,483 420,457 346,457 Z"/>
  </g>
  <g id="bullet-char-template(8211)" transform="scale(0.00048828125,-0.00048828125)">
   <path d="M -4,459 L 1135,459 1135,606 -4,606 -4,459 Z"/>
  </g>
 </defs>
 <defs class="TextEmbeddedBitmaps"/>
 <g>
  <g id="id2" class="Master_Slide">
   <g id="bg-id2" class="Background"/>
   <g id="bo-id2" class="BackgroundObjects"/>
  </g>
 </g>
 <g class="SlideGroup">
  <g>
   <g id="id1" class="Slide" clip-path="url(#presentation_clip_path)">
    <g class="Page">
     <g class="com.sun.star.drawing.PolyPolygonShape">
      <g id="id3">
       <path fill="rgb(255,255,255)" stroke="none" d="M 21000,0 L 3203,0 3203,3234 0,3234 0,21000 17797,21000 17797,17730 21000,17730 21000,0 Z"/>
      </g>
     </g>
     <g class="com.sun.star.drawing.PolyPolygonShape">
      <g id="id4">
       <path fill="rgb(35,31,32)" stroke="none" d="M 510,3742 L 17251,3742 17251,20455 510,20455 510,3742 Z"/>
      </g>
     </g>
     <g class="com.sun.star.drawing.ClosedBezierShape">
      <g id="id5">
       <path fill="rgb(255,255,255)" stroke="none" d="M 2984,16168 L 3749,16131 3749,17258 4367,17258 C 4768,17258 5132,17367 5205,17839 5205,18202 4986,18420 4768,18493 L 4258,18493 C 4367,18493 4731,18275 4659,18021 4586,17766 4331,17766 4113,17730 3894,17730 3021,17694 3021,17694 L 2984,16168 Z"/>
      </g>
     </g>
     <g class="com.sun.star.drawing.ClosedBezierShape">
      <g id="id6">
       <path fill="rgb(255,255,255)" stroke="none" d="M 2021,17512 C 1876,17694 1730,17948 1803,18239 2057,19002 3331,19329 3841,19365 L 3768,18457 C 3768,18457 2895,18566 2458,18130 2276,17948 2312,17730 2458,17512 2312,17512 2130,17512 2021,17512 Z"/>
      </g>
     </g>
     <g class="com.sun.star.drawing.PolyPolygonShape">
      <g id="id7">
       <path fill="rgb(18,123,202)" stroke="none" d="M 3749,545 L 20454,545 20454,17258 3749,17258 3749,545 Z"/>
      </g>
     </g>
     <g class="com.sun.star.drawing.ClosedBezierShape">
      <g id="id8">
       <path fill="rgb(255,255,255)" stroke="none" d="M 5932,11772 C 5932,12026 5932,12353 6078,12571 6224,12789 6406,12898 6660,12898 7425,12898 7425,11917 7425,11408 7425,10863 7425,9882 6697,9882 6042,9882 5932,10609 5932,11118 L 5932,11772 Z M 4549,7375 L 5896,7375 5896,9628 5932,9628 C 6187,9192 6588,8974 7097,8974 8480,8974 8880,10282 8880,11408 8880,12644 8407,13843 6951,13843 6260,13843 5932,13588 5605,13043 5423,13225 5386,13516 5277,13770 L 4549,13770 4549,7375 Z"/>
      </g>
     </g>
     <g class="com.sun.star.drawing.PolyPolygonShape">
      <g id="id9">
       <path fill="rgb(255,255,255)" stroke="none" d="M 9135,7375 L 10518,7375 10518,13770 9135,13770 9135,7375 Z"/>
      </g>
     </g>
     <g class="com.sun.star.drawing.ClosedBezierShape">
      <g id="id10">
       <path fill="rgb(255,255,255)" stroke="none" d="M 13939,10827 C 13903,10318 13757,9846 13139,9846 12556,9846 12302,10282 12265,10827 L 13939,10827 Z M 12265,11626 L 12265,11881 C 12265,12426 12593,12862 13175,12862 13612,12862 14012,12571 14012,12135 L 15322,12244 C 15322,12462 14776,13843 13139,13843 11719,13843 10809,12862 10809,11481 10809,10064 11646,8938 13102,8938 13757,8938 14485,9228 14849,9773 15250,10318 15359,11009 15322,11626 L 12265,11626 Z"/>
      </g>
     </g>
     <g class="com.sun.star.drawing.ClosedBezierShape">
      <g id="id11">
       <path fill="rgb(255,255,255)" stroke="none" d="M 18417,13734 L 18417,12898 18381,12898 C 18163,13516 17689,13843 17034,13843 16525,13843 16125,13697 15870,13298 15579,12862 15615,12426 15615,11990 L 15615,9010 17034,9010 17034,11990 C 17034,12353 17071,12716 17544,12716 17835,12716 18126,12535 18235,12280 18308,12062 18308,11772 18308,11554 L 18308,9010 19655,9010 19655,13734 18417,13734 Z"/>
      </g>
     </g>
     <g class="com.sun.star.drawing.ClosedBezierShape">
      <g id="id12">
       <path fill="rgb(255,255,255)" stroke="none" d="M 11646,8284 L 11137,8284 11137,7048 10919,7048 10919,6649 11137,6649 C 11137,6540 11101,6322 11210,6176 11319,6031 11574,5958 11756,5958 L 11974,5995 11974,6358 11792,6358 C 11646,6358 11646,6467 11646,6612 L 11646,6649 11938,6649 11938,7048 11646,7048 11646,8284 Z"/>
      </g>
     </g>
     <g class="com.sun.star.drawing.ClosedBezierShape">
      <g id="id13">
       <path fill="rgb(255,255,255)" stroke="none" d="M 12520,6576 L 12520,6939 12556,6939 C 12593,6721 12702,6540 12920,6540 L 13029,6576 13029,7085 C 12593,7048 12556,7339 12556,7630 L 12556,8284 12083,8284 12083,6576 12520,6576 Z"/>
      </g>
     </g>
     <g class="com.sun.star.drawing.ClosedBezierShape">
      <g id="id14">
       <path fill="rgb(255,255,255)" stroke="none" d="M 14085,7448 C 13903,7484 13539,7521 13539,7739 13539,7920 13612,7993 13794,7993 13903,7993 13976,7957 14049,7884 14085,7739 14085,7630 14085,7521 L 14085,7448 Z M 14158,8284 C 14121,8175 14121,8102 14121,8029 13976,8211 13830,8320 13575,8320 13248,8320 13029,8138 13029,7848 13029,7557 13175,7375 13393,7303 13612,7230 13903,7230 14085,7194 L 14085,7157 C 14085,7085 14121,7012 14049,6939 14012,6903 13939,6867 13867,6867 13721,6867 13539,6939 13539,7121 L 13066,7085 C 13139,6685 13539,6540 13903,6540 14085,6540 14303,6576 14449,6721 14594,6830 14594,7012 14594,7230 L 14594,8029 C 14594,8102 14594,8211 14631,8284 L 14158,8284 Z"/>
      </g>
     </g>
     <g class="com.sun.star.drawing.ClosedBezierShape">
      <g id="id15">
       <path fill="rgb(255,255,255)" stroke="none" d="M 15250,6576 L 15250,6903 C 15359,6649 15504,6540 15723,6540 15905,6540 16050,6612 16123,6721 16269,6903 16269,7121 16269,7266 L 16269,8284 15759,8284 15759,7375 C 15759,7230 15759,6976 15541,6976 15432,6976 15359,7012 15322,7085 15286,7194 15286,7266 15286,7375 L 15286,8284 14813,8284 14813,6576 15250,6576 Z"/>
      </g>
     </g>
     <g class="com.sun.star.drawing.ClosedBezierShape">
      <g id="id16">
       <path fill="rgb(255,255,255)" stroke="none" d="M 17506,7230 C 17506,7048 17433,6903 17288,6903 16997,6903 16960,7194 16960,7375 16960,7593 16960,7920 17251,7920 17433,7920 17506,7739 17506,7593 L 17979,7630 C 17943,8066 17615,8320 17215,8320 16669,8320 16378,7957 16378,7412 16378,6903 16742,6540 17251,6540 17652,6540 17943,6794 17979,7194 L 17506,7230 Z"/>
      </g>
     </g>
     <g class="com.sun.star.drawing.ClosedBezierShape">
      <g id="id17">
       <path fill="rgb(255,255,255)" stroke="none" d="M 19180,7194 C 19180,7048 19071,6867 18853,6867 18671,6867 18562,7012 18562,7194 L 19180,7194 Z M 18562,7484 L 18562,7593 C 18562,7811 18671,7957 18889,7957 19035,7957 19217,7848 19217,7666 L 19653,7702 C 19653,7811 19471,8320 18853,8320 18380,8320 18052,7957 18052,7448 18052,6939 18343,6540 18853,6540 19071,6540 19362,6649 19508,6830 19617,7048 19653,7266 19653,7484 L 18562,7484 Z"/>
      </g>
     </g>
     <g class="com.sun.star.drawing.ClosedBezierShape">
      <g id="id18">
       <path fill="rgb(255,255,255)" stroke="none" d="M 8407,15187 L 8407,14787 8698,14787 8735,14279 9172,14242 9172,14787 9572,14787 9572,15187 9172,15187 9172,15841 C 9172,16022 9172,16095 9426,16095 L 9572,16095 9572,16458 C 9463,16458 9317,16495 9244,16495 9099,16495 8917,16458 8808,16386 8698,16277 8698,16059 8698,15913 L 8698,15187 8407,15187 Z"/>
      </g>
     </g>
     <g class="com.sun.star.drawing.ClosedBezierShape">
      <g id="id19">
       <path fill="rgb(255,255,255)" stroke="none" d="M 10191,15514 C 10191,15732 10191,16131 10445,16131 10737,16131 10737,15804 10737,15587 10737,15478 10737,15296 10700,15187 10664,15078 10591,15042 10445,15042 10191,15042 10191,15332 10191,15514 Z M 11246,15587 C 11246,16059 10955,16495 10445,16495 9936,16495 9645,16059 9645,15587 9645,15114 9936,14715 10445,14715 10991,14715 11246,15114 11246,15587 Z"/>
      </g>
     </g>
     <g class="com.sun.star.drawing.ClosedBezierShape">
      <g id="id20">
       <path fill="rgb(255,255,255)" stroke="none" d="M 12380,16458 L 12380,16168 C 12307,16386 12125,16495 11871,16495 11689,16495 11543,16458 11470,16313 11361,16168 11398,15986 11398,15841 L 11398,14751 11871,14751 11871,15841 C 11871,15950 11871,16095 12089,16095 12198,16095 12271,16022 12307,15950 12344,15877 12344,15768 12344,15696 L 12344,14751 12817,14751 12817,16458 12380,16458 Z"/>
      </g>
     </g>
     <g class="com.sun.star.drawing.ClosedBezierShape">
      <g id="id21">
       <path fill="rgb(255,255,255)" stroke="none" d="M 13503,14751 L 13503,15078 C 13539,14896 13648,14715 13903,14715 L 13976,14715 13976,15260 C 13575,15187 13539,15514 13539,15804 L 13539,16458 13029,16458 13029,14751 13503,14751 Z"/>
      </g>
     </g>
     <g class="com.sun.star.drawing.ClosedBezierShape">
      <g id="id22">
       <path fill="rgb(255,255,255)" stroke="none" d="M 15031,15623 C 14849,15623 14522,15696 14522,15913 14522,16059 14594,16131 14740,16131 14813,16131 14922,16095 14958,15986 15031,15913 15031,15804 15031,15696 L 15031,15623 Z M 15068,16458 C 15068,16349 15068,16240 15068,16168 14922,16386 14776,16495 14522,16495 14231,16495 14012,16277 14012,15986 14012,15732 14158,15550 14376,15478 14558,15405 14849,15405 15031,15369 L 15031,15332 C 15031,15260 15031,15187 14995,15114 14958,15078 14886,15042 14813,15042 14631,15042 14522,15114 14522,15296 L 14049,15260 C 14121,14824 14485,14715 14849,14715 15031,14715 15286,14751 15395,14860 15577,15005 15577,15187 15577,15405 L 15577,16168 C 15577,16240 15577,16349 15614,16458 L 15068,16458 Z"/>
      </g>
     </g>
     <g class="com.sun.star.drawing.PolyPolygonShape">
      <g id="id23">
       <path fill="rgb(255,255,255)" stroke="none" d="M 16269,16458 L 15759,16458 15759,14751 16269,14751 16269,16458 Z M 16269,14606 L 15759,14606 15759,14133 16269,14133 16269,14606 Z"/>
      </g>
     </g>
     <g class="com.sun.star.drawing.ClosedBezierShape">
      <g id="id24">
       <path fill="rgb(255,255,255)" stroke="none" d="M 16924,14751 L 16924,15042 C 17033,14824 17179,14715 17433,14715 17579,14715 17761,14787 17870,14896 17943,15042 17943,15260 17943,15441 L 17943,16458 17433,16458 17433,15550 C 17433,15405 17470,15114 17215,15114 17142,15114 17069,15151 16997,15260 16960,15369 16960,15441 16960,15550 L 16960,16458 16487,16458 16487,14751 16924,14751 Z"/>
      </g>
     </g>
     <g class="com.sun.star.drawing.ClosedBezierShape">
      <g id="id25">
       <path fill="rgb(255,255,255)" stroke="none" d="M 19217,15369 C 19180,15187 19144,15042 18889,15042 18671,15042 18598,15187 18562,15369 L 19217,15369 Z M 18562,15659 L 18562,15732 C 18562,15950 18671,16095 18889,16095 19035,16095 19217,15986 19217,15841 L 19653,15877 C 19653,15950 19471,16495 18889,16495 18380,16495 18052,16095 18052,15623 18052,15114 18343,14715 18853,14715 19144,14715 19362,14824 19508,15005 19653,15223 19690,15441 19690,15659 L 18562,15659 Z"/>
      </g>
     </g>
    </g>
   </g>
  </g>
 </g>
</svg>