<?xml version="1.0" encoding="UTF-8" standalone="no"?>
<!-- Created with Inkscape (http://www.inkscape.org/) -->

<svg
   xmlns:dc="http://purl.org/dc/elements/1.1/"
   xmlns:cc="http://creativecommons.org/ns#"
   xmlns:rdf="http://www.w3.org/1999/02/22-rdf-syntax-ns#"
   xmlns:svg="http://www.w3.org/2000/svg"
   xmlns="http://www.w3.org/2000/svg"
   xmlns:sodipodi="http://sodipodi.sourceforge.net/DTD/sodipodi-0.dtd"
   xmlns:inkscape="http://www.inkscape.org/namespaces/inkscape"
   id="svg2"
   version="1.1"
   inkscape:version="0.48.2 r9819"
   width="661.46863"
   height="564.02625"
   xml:space="preserve"
   sodipodi:docname="logo_TOURAINE_Q.ai"><metadata
     id="metadata8"><rdf:RDF><cc:Work
         rdf:about=""><dc:format>image/svg+xml</dc:format><dc:type
           rdf:resource="http://purl.org/dc/dcmitype/StillImage" /><dc:title></dc:title></cc:Work></rdf:RDF></metadata><defs
     id="defs6"><clipPath
       clipPathUnits="userSpaceOnUse"
       id="clipPath16"><path
         d="m 0,841.89 1190.551,0 0,-841.89 L 0,0 0,841.89 z"
         id="path18"
         inkscape:connector-curvature="0" /></clipPath><clipPath
       clipPathUnits="userSpaceOnUse"
       id="clipPath32"><path
         d="m 352.062,438.797 515.73,0 0,-43.92 -515.73,0 0,43.92 z"
         id="path34"
         inkscape:connector-curvature="0" /></clipPath><linearGradient
       x1="0"
       y1="0"
       x2="1"
       y2="0"
       gradientUnits="userSpaceOnUse"
       gradientTransform="matrix(515.73047,0,0,-515.73047,352.06152,416.83691)"
       spreadMethod="pad"
       id="linearGradient40"><stop
         style="stop-opacity:1;stop-color:#231f20"
         offset="0"
         id="stop42" /><stop
         style="stop-opacity:1;stop-color:#ffffff"
         offset="1"
         id="stop44" /></linearGradient><clipPath
       clipPathUnits="userSpaceOnUse"
       id="clipPath64"><path
         d="m 345.579,402.754 424.804,0 0,-31.402 -424.804,0 0,31.402 z"
         id="path66"
         inkscape:connector-curvature="0" /></clipPath><linearGradient
       x1="0"
       y1="0"
       x2="1"
       y2="0"
       gradientUnits="userSpaceOnUse"
       gradientTransform="matrix(424.80371,0,0,-424.80371,345.5791,387.05273)"
       spreadMethod="pad"
       id="linearGradient72"><stop
         style="stop-opacity:1;stop-color:#231f20"
         offset="0"
         id="stop74" /><stop
         style="stop-opacity:1;stop-color:#ffffff"
         offset="1"
         id="stop76" /></linearGradient><linearGradient
       x1="0"
       y1="0"
       x2="1"
       y2="0"
       gradientUnits="userSpaceOnUse"
       gradientTransform="matrix(237.88574,0,9.9198303,-237.88574,354.3291,556.75049)"
       spreadMethod="pad"
       id="linearGradient104"><stop
         style="stop-opacity:1;stop-color:#228bd4"
         offset="0"
         id="stop106" /><stop
         style="stop-opacity:1;stop-color:#7cb327"
         offset="0.741379"
         id="stop108" /><stop
         style="stop-opacity:1;stop-color:#7cb327"
         offset="0.741379"
         id="stop110" /><stop
         style="stop-opacity:1;stop-color:#7cb327"
         offset="1"
         id="stop112" /></linearGradient><clipPath
       clipPathUnits="userSpaceOnUse"
       id="clipPath120"><path
         d="m 0,841.89 1190.551,0 0,-841.89 L 0,0 0,841.89 z"
         id="path122"
         inkscape:connector-curvature="0" /></clipPath><clipPath
       clipPathUnits="userSpaceOnUse"
       id="clipPath128"><path
         d="m 359.091,671.087 228.395,0 0,-228.673 -228.395,0 0,228.673 z"
         id="path130"
         inkscape:connector-curvature="0" /></clipPath><linearGradient
       x1="0"
       y1="0"
       x2="1"
       y2="0"
       gradientUnits="userSpaceOnUse"
       gradientTransform="matrix(237.88574,0,9.9198303,-237.88574,354.3291,556.75049)"
       spreadMethod="pad"
       id="linearGradient136"><stop
         style="stop-opacity:1;stop-color:#231f20"
         offset="0"
         id="stop138" /><stop
         style="stop-opacity:1;stop-color:#ffffff"
         offset="1"
         id="stop140" /></linearGradient><linearGradient
       x1="0"
       y1="0"
       x2="1"
       y2="0"
       gradientUnits="userSpaceOnUse"
       gradientTransform="matrix(145.94043,0,0,-145.94043,530.27441,554.32129)"
       spreadMethod="pad"
       id="linearGradient168"><stop
         style="stop-opacity:1;stop-color:#fcd205"
         offset="0"
         id="stop170" /><stop
         style="stop-opacity:1;stop-color:#dc312f"
         offset="0.849136"
         id="stop172" /><stop
         style="stop-opacity:1;stop-color:#dc312f"
         offset="0.849136"
         id="stop174" /><stop
         style="stop-opacity:1;stop-color:#dc312f"
         offset="1"
         id="stop176" /></linearGradient><clipPath
       clipPathUnits="userSpaceOnUse"
       id="clipPath184"><path
         d="m 0,841.89 1190.551,0 0,-841.89 L 0,0 0,841.89 z"
         id="path186"
         inkscape:connector-curvature="0" /></clipPath></defs><sodipodi:namedview
     pagecolor="#ffffff"
     bordercolor="#666666"
     borderopacity="1"
     objecttolerance="10"
     gridtolerance="10"
     guidetolerance="10"
     inkscape:pageopacity="0"
     inkscape:pageshadow="2"
     inkscape:window-width="640"
     inkscape:window-height="480"
     id="namedview4"
     showgrid="false"
     fit-margin-top="0"
     fit-margin-left="0"
     fit-margin-right="0"
     fit-margin-bottom="0"
     inkscape:zoom="0.4360127"
     inkscape:cx="431.84307"
     inkscape:cy="263.59252"
     inkscape:window-x="0"
     inkscape:window-y="0"
     inkscape:window-maximized="0"
     inkscape:current-layer="g10" /><g
     id="g10"
     inkscape:groupmode="layer"
     inkscape:label="logo_TOURAINE_Q"
     transform="matrix(1.25,0,0,-1.25,-423.27138,838.85875)"><g
       id="g12"><g
         id="g14"
         clip-path="url(#clipPath16)"><g
           id="g20"
           transform="translate(640.1475,386.9932)"><path
             d="m 0,0 c -151.848,22.596 -246.348,15.998 -290.133,9.999 l -4.435,-21.77 c 89.893,12.543 192.225,0.553 279.913,-3.25 96.87,-4.213 144.89,14.419 144.89,14.419 C 79.771,-9.015 0,0 0,0"
             style="fill:#097ebe;fill-opacity:1;fill-rule:nonzero;stroke:none"
             id="path22"
             inkscape:connector-curvature="0" /></g><g
           id="g24"
           transform="translate(580.1855,428.9932)"><path
             d="m 0,0 c -121.426,13.619 -186.955,11.272 -223.143,3.69 l -4.981,-24.772 c 45.064,6.639 127.835,13.398 235.726,-2.955 163.878,-24.85 263.728,2.394 280.004,16.02 C 136.75,-32.06 144.795,-16.232 0,0"
             style="fill:#097ebe;fill-opacity:1;fill-rule:nonzero;stroke:none"
             id="path26"
             inkscape:connector-curvature="0" /></g><g
           id="g28"><g
             id="g30" /><g
             id="g46"><g
               clip-path="url(#clipPath32)"
               id="g48"
               style="opacity:0.19999701"><g
                 id="g50"><g
                   id="g52"><g
                     id="g54"><g
                       id="g56"><path
                         d="M 580.186,428.993 C 458.76,442.612 393.23,440.266 357.043,432.684 l -4.981,-24.773 c 45.064,6.639 127.834,13.399 235.725,-2.955 163.879,-24.85 263.729,2.395 280.005,16.021 -150.856,-24.043 -142.812,-8.216 -287.606,8.016"
                         style="fill:url(#linearGradient40);stroke:none"
                         id="path58"
                         inkscape:connector-curvature="0" /></g></g></g></g></g></g></g><g
           id="g60"><g
             id="g62" /><g
             id="g78"><g
               clip-path="url(#clipPath64)"
               id="g80"
               style="opacity:0.19999701"><g
                 id="g82"><g
                   id="g84"><g
                     id="g86"><g
                       id="g88"><path
                         d="M 640.147,386.993 C 488.3,409.589 393.8,402.991 350.015,396.992 l -4.436,-21.769 c 89.894,12.543 192.226,0.552 279.913,-3.251 96.87,-4.213 144.891,14.42 144.891,14.42 -50.465,-8.413 -130.236,0.601 -130.236,0.601"
                         style="fill:url(#linearGradient72);stroke:none"
                         id="path90"
                         inkscape:connector-curvature="0" /></g></g></g></g></g></g></g></g></g><g
       id="g92"><g
         id="g94"><g
           id="g100"><g
             id="g102"><path
               d="m 552.825,671.087 c -0.648,0 -1.272,-0.531 -1.4,-1.197 l 0,0 -2.763,-14.631 -22.298,0 2.766,14.631 c 0.126,0.666 -0.299,1.197 -0.947,1.197 l 0,0 -31.712,0 -0.228,-1.197 -0.225,-1.191 -2.564,-13.575 -9.031,0 -1.202,0 -9.271,0 2.568,13.575 0.223,1.191 0.227,1.197 -32.459,0 c -0.666,0 -1.299,-0.531 -1.426,-1.197 l 0,0 -2.765,-14.631 -22.825,0 2.762,14.631 c 0.129,0.666 -0.307,1.197 -0.967,1.197 l 0,0 -34.492,0 c -0.666,0 -1.301,-0.531 -1.428,-1.197 l 0,0 -16.055,-84.897 c -0.055,-0.294 0,-0.576 0.153,-0.793 l 0,0 c 0.157,-0.219 15.449,-22.225 12.103,-39.903 l 0,0 -20.471,-101.654 c -0.017,-0.082 0.003,-0.153 0.003,-0.229 l 0,0 c 29.918,6.075 80.341,8.663 164.943,1.786 l 0,0 20.177,100.097 c 3.343,17.678 26.507,39.684 26.741,39.903 l 0,0 c 0.23,0.217 0.392,0.499 0.445,0.793 l 0,0 16.057,84.897 c 0.127,0.666 -0.297,1.197 -0.946,1.197 l 0,0 -33.693,0 z"
               style="fill:url(#linearGradient104);stroke:none"
               id="path114"
               inkscape:connector-curvature="0" /></g></g></g></g><g
       id="g116"><g
         id="g118"
         clip-path="url(#clipPath120)"><g
           id="g124"><g
             id="g126" /><g
             id="g142"><g
               clip-path="url(#clipPath128)"
               id="g144"
               style="opacity:0.19999701"><g
                 id="g146"><g
                   id="g148"><g
                     id="g150"><g
                       id="g152"><path
                         d="m 359.099,442.644 c -0.018,-0.083 0.002,-0.154 0.002,-0.23 29.918,6.075 80.341,8.663 164.943,1.786 l 20.177,100.097 c 3.343,17.679 26.507,39.684 26.741,39.903 0.23,0.217 0.392,0.499 0.445,0.793 l 16.057,84.897 c 0.127,0.666 -0.297,1.197 -0.945,1.197 l -33.694,0 c -0.648,0 -1.271,-0.531 -1.4,-1.197 l -2.763,-14.63 -22.298,0 2.766,14.63 c 0.126,0.666 -0.299,1.197 -0.947,1.197 l -31.711,0 -0.229,-1.197 -0.225,-1.191 -2.564,-13.575 -9.031,0 -1.202,0 -9.271,0 2.568,13.575 0.223,1.191 0.227,1.197 -32.459,0 c -0.666,0 -1.299,-0.531 -1.426,-1.197 l -2.766,-14.63 -22.824,0 2.762,14.63 c 0.129,0.666 -0.307,1.197 -0.968,1.197 l -34.491,0 c -0.666,0 -1.301,-0.531 -1.428,-1.197 l -16.055,-84.897 c -0.055,-0.294 0,-0.576 0.154,-0.793 0.156,-0.219 15.448,-22.224 12.101,-39.903 L 359.099,442.644 z"
                         style="fill:url(#linearGradient136);stroke:none"
                         id="path154"
                         inkscape:connector-curvature="0" /></g></g></g></g></g></g></g></g></g><g
       id="g156"><g
         id="g158"><g
           id="g164"><g
             id="g166"><path
               d="m 593.856,671.087 c 0.113,-0.681 0.113,-1.386 -0.02,-2.087 l 0,0 -16.049,-84.852 c -0.233,-1.295 -0.9,-2.515 -1.879,-3.437 l 0,0 c -6.183,-5.837 -22.783,-23.917 -25.315,-37.304 l 0,0 -0.006,-0.028 -0.005,-0.028 -20.307,-99.762 c 11.314,-0.708 37.474,-3.618 57.609,-6.033 l 0,0 c 0,0 12.142,147.061 48.155,147.061 l 0,0 24.151,0 16.025,86.47 -82.359,0 z"
               style="fill:url(#linearGradient168);stroke:none"
               id="path178"
               inkscape:connector-curvature="0" /></g></g></g></g><g
       id="g180"><g
         id="g182"
         clip-path="url(#clipPath184)"><g
           id="g188"
           transform="translate(356.0938,264.0635)"><path
             d="m 0,0 4.419,0 0,-40.195 18.274,0 0,-4.002 L 0,-44.197 0,0 z"
             style="fill:#7b7979;fill-opacity:1;fill-rule:nonzero;stroke:none"
             id="path190"
             inkscape:connector-curvature="0" /></g><g
           id="g192"
           transform="translate(384.7549,264.0635)"><path
             d="m 0,0 24.189,0 0,-4.002 -19.768,0 0,-15.887 19.111,0 0,-4.002 -19.111,0 0,-16.304 19.768,0 0,-4.002 L 0,-44.197 0,0 z"
             style="fill:#7b7979;fill-opacity:1;fill-rule:nonzero;stroke:none"
             id="path194"
             inkscape:connector-curvature="0" /></g><g
           id="g196"
           transform="translate(441.5439,223.8682)"><path
             d="m 0,0 6.391,0 c 4.002,0 10.095,0 15.172,3.584 2.687,2.27 6.927,6.867 6.927,14.572 0,5.854 -2.926,11.289 -7.525,14.633 -3.942,2.568 -8.064,3.404 -14.574,3.404 L 0,36.193 0,0 z m -4.418,40.195 12.9,0 c 5.436,0 10.809,-1.314 14.395,-3.644 C 30.64,31.715 32.91,23.293 32.91,17.977 32.91,13.855 31.297,5.018 22.877,-0.357 19.291,-2.688 13.918,-4.002 8.482,-4.002 l -12.9,0 0,44.197 z"
             style="fill:#7b7979;fill-opacity:1;fill-rule:nonzero;stroke:none"
             id="path198"
             inkscape:connector-curvature="0" /></g><g
           id="g200"
           transform="translate(483.1064,264.0635)"><path
             d="m 0,0 24.188,0 0,-4.002 -19.771,0 0,-15.887 19.113,0 0,-4.002 -19.113,0 0,-16.304 19.771,0 0,-4.002 L 0,-44.197 0,0 z"
             style="fill:#7b7979;fill-opacity:1;fill-rule:nonzero;stroke:none"
             id="path202"
             inkscape:connector-curvature="0" /></g><g
           id="g204"
           transform="translate(521.6221,241.667)"><path
             d="m 0,0 6.39,0 c 4.717,0 6.333,0 8.839,1.135 3.464,1.611 5.138,4.717 5.138,8.062 0,3.344 -1.674,6.449 -5.138,8.063 -2.506,1.135 -4.122,1.135 -8.839,1.135 L 0,18.395 0,0 z m -4.42,22.396 12.303,0 c 6.092,0 8.958,-0.955 11.408,-2.568 3.284,-2.211 5.496,-5.973 5.496,-10.631 0,-4.658 -2.212,-8.422 -5.496,-10.631 -2.45,-1.613 -5.316,-2.568 -11.408,-2.568 l -7.883,0 0,-17.799 -4.42,0 0,44.197 z"
             style="fill:#7b7979;fill-opacity:1;fill-rule:nonzero;stroke:none"
             id="path206"
             inkscape:connector-curvature="0" /></g><g
           id="g208"
           transform="translate(556.5088,238.7393)"><path
             d="M 0,0 17.142,0 8.662,20.307 0,0 z m 6.152,25.324 4.958,0 18.994,-44.197 -4.84,0 -6.39,14.873 -20.544,0 -6.452,-14.873 -4.599,0 18.873,44.197 z"
             style="fill:#7b7979;fill-opacity:1;fill-rule:nonzero;stroke:none"
             id="path210"
             inkscape:connector-curvature="0" /></g><g
           id="g212"
           transform="translate(593.2305,264.0635)"><path
             d="m 0,0 11.23,0 c 5.914,0 8.837,-0.717 10.87,-1.672 4.956,-2.33 7.883,-7.168 7.883,-12.601 0,-6.393 -4.599,-12.901 -13.138,-13.44 l 12.482,-16.484 -5.555,0 -14.991,20.008 c 5.615,0 7.525,0.06 9.495,0.658 4.839,1.373 7.287,5.433 7.287,9.375 0,3.465 -1.97,7.049 -4.837,8.482 -2.629,1.373 -4.899,1.672 -8.6,1.672 l -7.706,0 0,-40.195 -4.42,0 L 0,0 z"
             style="fill:#7b7979;fill-opacity:1;fill-rule:nonzero;stroke:none"
             id="path214"
             inkscape:connector-curvature="0" /></g><g
           id="g216"
           transform="translate(637.9512,260.0615)"><path
             d="m 0,0 -10.153,0 0,4.002 24.666,0 0,-4.002 -10.093,0 0,-40.195 -4.42,0 L 0,0 z"
             style="fill:#7b7979;fill-opacity:1;fill-rule:nonzero;stroke:none"
             id="path218"
             inkscape:connector-curvature="0" /></g><g
           id="g220"
           transform="translate(658.8506,264.0635)"><path
             d="m 0,0 24.188,0 0,-4.002 -19.77,0 0,-15.887 19.111,0 0,-4.002 -19.111,0 0,-16.304 19.77,0 0,-4.002 L 0,-44.197 0,0 z"
             style="fill:#7b7979;fill-opacity:1;fill-rule:nonzero;stroke:none"
             id="path222"
             inkscape:connector-curvature="0" /></g><g
           id="g224"
           transform="translate(693.0049,264.0635)"><path
             d="M 0,0 6.809,0 22.877,-37.627 39.003,0 l 6.808,0 0,-44.197 -4.42,0 0,39.359 -0.12,0 -16.542,-39.359 -3.764,0 -16.424,39.359 -0.121,0 0,-39.359 -4.42,0 L 0,0 z"
             style="fill:#7b7979;fill-opacity:1;fill-rule:nonzero;stroke:none"
             id="path226"
             inkscape:connector-curvature="0" /></g><g
           id="g228"
           transform="translate(749.3174,264.0635)"><path
             d="m 0,0 24.188,0 0,-4.002 -19.768,0 0,-15.887 19.112,0 0,-4.002 -19.112,0 0,-16.304 19.768,0 0,-4.002 L 0,-44.197 0,0 z"
             style="fill:#7b7979;fill-opacity:1;fill-rule:nonzero;stroke:none"
             id="path230"
             inkscape:connector-curvature="0" /></g><g
           id="g232"
           transform="translate(783.4131,264.0635)"><path
             d="m 0,0 5.973,0 24.666,-36.672 0.121,0 0,36.672 4.418,0 0,-44.197 -4.418,0 -26.221,38.881 -0.119,0 0,-38.881 -4.42,0 L 0,0 z"
             style="fill:#7b7979;fill-opacity:1;fill-rule:nonzero;stroke:none"
             id="path234"
             inkscape:connector-curvature="0" /></g><g
           id="g236"
           transform="translate(835.4268,260.0615)"><path
             d="m 0,0 -10.154,0 0,4.002 24.666,0 0,-4.002 -10.092,0 0,-40.195 -4.42,0 L 0,0 z"
             style="fill:#7b7979;fill-opacity:1;fill-rule:nonzero;stroke:none"
             id="path238"
             inkscape:connector-curvature="0" /></g><path
           d="m 483.216,271.448 24.158,0 0,-2.873 -24.158,0 0,2.873 z"
           style="fill:#7b7979;fill-opacity:1;fill-rule:nonzero;stroke:none"
           id="path240"
           inkscape:connector-curvature="0" /><g
           id="g242"
           transform="translate(357.3301,345.7617)"><path
             d="m 0,0 -17.713,0 0,7.127 43.46,0 0,-7.127 -17.681,0 0,-64.653 -8.066,0 L 0,0 z"
             style="fill:#7b7979;fill-opacity:1;fill-rule:nonzero;stroke:none"
             id="path244"
             inkscape:connector-curvature="0" /></g><g
           id="g246"
           transform="translate(357.3301,345.7617)"><path
             d="m 0,0 -17.713,0 0,7.127 43.46,0 0,-7.127 -17.681,0 0,-64.653 -8.066,0 L 0,0 z"
             style="fill:none;stroke:#7b7979;stroke-width:2;stroke-linecap:butt;stroke-linejoin:miter;stroke-miterlimit:10;stroke-opacity:1;stroke-dasharray:none"
             id="path248"
             inkscape:connector-curvature="0" /></g><g
           id="g250"
           transform="translate(399.5615,317.0635)"><path
             d="m 0,0 c 0,-16.836 12.699,-30.023 29.474,-30.023 17.001,0 29.311,13.705 29.311,30.023 0,16.35 -12.31,30.088 -29.376,30.088 C 12.505,30.088 0,16.707 0,0.098 L 0,0 z m -8.066,-0.26 c 0,22.118 17.138,37.379 37.442,37.379 21.083,0 37.476,-16.169 37.476,-37.183 0,-21.016 -16.36,-37.184 -37.508,-37.184 -21.245,0 -37.41,16.394 -37.41,36.891 l 0,0.097 z"
             style="fill:#7b7979;fill-opacity:1;fill-rule:nonzero;stroke:none"
             id="path252"
             inkscape:connector-curvature="0" /></g><g
           id="g254"
           transform="translate(399.5615,317.0635)"><path
             d="m 0,0 c 0,-16.836 12.699,-30.023 29.474,-30.023 17.001,0 29.311,13.705 29.311,30.023 0,16.35 -12.31,30.088 -29.376,30.088 C 12.505,30.088 0,16.707 0,0.098 L 0,0 z m -8.066,-0.26 c 0,22.118 17.138,37.379 37.442,37.379 21.083,0 37.476,-16.169 37.476,-37.183 0,-21.016 -16.36,-37.184 -37.508,-37.184 -21.245,0 -37.41,16.394 -37.41,36.891 l 0,0.097 z"
             style="fill:none;stroke:#7b7979;stroke-width:2;stroke-linecap:butt;stroke-linejoin:miter;stroke-miterlimit:10;stroke-opacity:1;stroke-dasharray:none"
             id="path256"
             inkscape:connector-curvature="0" /></g><g
           id="g258"
           transform="translate(493.4893,352.8887)"><path
             d="m 0,0 0,-45.489 c 0,-5.461 0.032,-9.567 3.392,-14.381 2.487,-3.652 7.205,-6.076 12.505,-6.076 5.141,0 9.858,2.359 12.281,5.947 3.359,4.781 3.359,8.92 3.359,14.51 l 0,45.489 8.067,0 0,-45.489 c 0.064,-8.348 -1.005,-16.588 -8.147,-22.084 -4.01,-3.397 -9.347,-5.5 -15.623,-5.5 -4.98,0 -11.322,1.519 -15.754,5.467 -7.596,6.111 -8.211,14.255 -8.146,22.117 L -8.066,0 0,0 z"
             style="fill:#7b7979;fill-opacity:1;fill-rule:nonzero;stroke:none"
             id="path260"
             inkscape:connector-curvature="0" /></g><g
           id="g262"
           transform="translate(493.4893,352.8887)"><path
             d="m 0,0 0,-45.489 c 0,-5.461 0.032,-9.567 3.392,-14.381 2.487,-3.652 7.205,-6.076 12.505,-6.076 5.141,0 9.858,2.359 12.281,5.947 3.359,4.781 3.359,8.92 3.359,14.51 l 0,45.489 8.067,0 0,-45.489 c 0.064,-8.348 -1.005,-16.588 -8.147,-22.084 -4.01,-3.397 -9.347,-5.5 -15.623,-5.5 -4.98,0 -11.322,1.519 -15.754,5.467 -7.596,6.111 -8.211,14.255 -8.146,22.117 L -8.066,0 0,0 z"
             style="fill:none;stroke:#7b7979;stroke-width:2;stroke-linecap:butt;stroke-linejoin:miter;stroke-miterlimit:10;stroke-opacity:1;stroke-dasharray:none"
             id="path264"
             inkscape:connector-curvature="0" /></g><g
           id="g266"
           transform="translate(554.7549,352.8887)"><path
             d="m 0,0 18.761,0 c 11.187,0 16.492,-1.327 20.146,-3.721 5.885,-3.493 9.828,-11.091 9.828,-19.27 0.129,-4.819 -1.294,-9.99 -4.235,-14.031 -4.297,-5.85 -9.468,-7.243 -16.027,-7.922 l 17.811,-26.836 -8.777,0 -20.271,31.336 2.362,0 c 5.043,0 12.054,0.131 15.9,3.683 3.78,3.653 5.43,8.08 5.43,13.153 0,5.398 -2.617,10.988 -7.109,13.895 -3.587,2.294 -8.047,2.586 -14.507,2.586 l -11.246,0 0,-64.653 L 0,-71.78 0,0 z"
             style="fill:#7b7979;fill-opacity:1;fill-rule:nonzero;stroke:none"
             id="path268"
             inkscape:connector-curvature="0" /></g><g
           id="g270"
           transform="translate(554.7549,352.8887)"><path
             d="m 0,0 18.761,0 c 11.187,0 16.492,-1.327 20.146,-3.721 5.885,-3.493 9.828,-11.091 9.828,-19.27 0.129,-4.819 -1.294,-9.99 -4.235,-14.031 -4.297,-5.85 -9.468,-7.243 -16.027,-7.922 l 17.811,-26.836 -8.777,0 -20.271,31.336 2.362,0 c 5.043,0 12.054,0.131 15.9,3.683 3.78,3.653 5.43,8.08 5.43,13.153 0,5.398 -2.617,10.988 -7.109,13.895 -3.587,2.294 -8.047,2.586 -14.507,2.586 l -11.246,0 0,-64.653 L 0,-71.78 0,0 z"
             style="fill:none;stroke:#7b7979;stroke-width:2;stroke-linecap:butt;stroke-linejoin:miter;stroke-miterlimit:10;stroke-opacity:1;stroke-dasharray:none"
             id="path272"
             inkscape:connector-curvature="0" /></g><g
           id="g274"
           transform="translate(647.6611,343.7842)"><path
             d="m 0,0 -14.217,-35.939 28.596,0 L 0,0 z m -24.851,-62.676 -8.713,0 29.97,71.78 7.804,0 29.68,-71.78 -8.781,0 -8.301,20.129 -33.388,0 -8.271,-20.129 z"
             style="fill:#7b7979;fill-opacity:1;fill-rule:nonzero;stroke:none"
             id="path276"
             inkscape:connector-curvature="0" /></g><g
           id="g278"
           transform="translate(647.6611,343.7842)"><path
             d="m 0,0 -14.217,-35.939 28.596,0 L 0,0 z m -24.851,-62.676 -8.713,0 29.97,71.78 7.804,0 29.68,-71.78 -8.781,0 -8.301,20.129 -33.388,0 -8.271,-20.129 z"
             style="fill:none;stroke:#7b7979;stroke-width:2;stroke-linecap:butt;stroke-linejoin:miter;stroke-miterlimit:10;stroke-opacity:1;stroke-dasharray:none"
             id="path280"
             inkscape:connector-curvature="0" /></g><path
           d="m 697.586,352.889 8.066,0 0,-71.78 -8.066,0 0,71.78 z"
           style="fill:#7b7979;fill-opacity:1;fill-rule:nonzero;stroke:#7b7979;stroke-width:2;stroke-linecap:butt;stroke-linejoin:miter;stroke-miterlimit:10;stroke-opacity:1;stroke-dasharray:none"
           id="path282"
           inkscape:connector-curvature="0" /><g
           id="g284"
           transform="translate(778.4209,293.0635)"><path
             d="m 0,0 -0.13,59.825 7.807,0 0,-71.78 -7.773,0 -42.495,60.309 0.13,-60.309 -7.808,0 0,71.78 8.193,0 L 0,0 z"
             style="fill:#7b7979;fill-opacity:1;fill-rule:nonzero;stroke:none"
             id="path286"
             inkscape:connector-curvature="0" /></g><g
           id="g288"
           transform="translate(778.4209,293.0635)"><path
             d="m 0,0 -0.13,59.825 7.807,0 0,-71.78 -7.773,0 -42.495,60.309 0.13,-60.309 -7.808,0 0,71.78 8.193,0 L 0,0 z"
             style="fill:none;stroke:#7b7979;stroke-width:2;stroke-linecap:butt;stroke-linejoin:miter;stroke-miterlimit:10;stroke-opacity:1;stroke-dasharray:none"
             id="path290"
             inkscape:connector-curvature="0" /></g><g
           id="g292"
           transform="translate(808.5664,352.8887)"><path
             d="m 0,0 39.804,0 0,-7.127 -31.738,0 0,-24.843 31.511,0 0,-7.127 -31.511,0 0,-25.556 31.738,0 0,-7.127 L 0,-71.78 0,0 z"
             style="fill:#7b7979;fill-opacity:1;fill-rule:nonzero;stroke:none"
             id="path294"
             inkscape:connector-curvature="0" /></g><g
           id="g296"
           transform="translate(808.5664,352.8887)"><path
             d="m 0,0 39.804,0 0,-7.127 -31.738,0 0,-24.843 31.511,0 0,-7.127 -31.511,0 0,-25.556 31.738,0 0,-7.127 L 0,-71.78 0,0 z"
             style="fill:none;stroke:#7b7979;stroke-width:2;stroke-linecap:butt;stroke-linejoin:miter;stroke-miterlimit:10;stroke-opacity:1;stroke-dasharray:none"
             id="path298"
             inkscape:connector-curvature="0" /></g></g></g></g></svg>