<?xml version="1.0" encoding="UTF-8" standalone="no"?>
<!-- Created with Inkscape (http://www.inkscape.org/) -->

<svg
   width="16"
   height="16"
   viewBox="0 0 4.2333387 4.2333335"
   version="1.1"
   id="svg8"
   inkscape:version="1.1 (c68e22c387, 2021-05-23)"
   sodipodi:docname="favicon (3).svg"
   xmlns:inkscape="http://www.inkscape.org/namespaces/inkscape"
   xmlns:sodipodi="http://sodipodi.sourceforge.net/DTD/sodipodi-0.dtd"
   xmlns:xlink="http://www.w3.org/1999/xlink"
   xmlns="http://www.w3.org/2000/svg"
   xmlns:svg="http://www.w3.org/2000/svg"
   xmlns:rdf="http://www.w3.org/1999/02/22-rdf-syntax-ns#"
   xmlns:cc="http://creativecommons.org/ns#"
   xmlns:dc="http://purl.org/dc/elements/1.1/">
  <defs
     id="defs2">
    <linearGradient
       gradientTransform="matrix(0.59156685,0,0,0.59156685,90.505379,21.72354)"
       gradientUnits="userSpaceOnUse"
       y2="79.59816"
       x2="111.2933"
       y1="49.612549"
       x1="111.29329"
       id="linearGradient4001"
       xlink:href="#linearGradient3999"
       inkscape:collect="always" />
    <linearGradient
       id="linearGradient3999"
       inkscape:collect="always">
      <stop
         id="stop3995"
         offset="0"
         style="stop-color:#cf8936;stop-opacity:0.95686275" />
      <stop
         id="stop3997"
         offset="1"
         style="stop-color:#e7a03d;stop-opacity:1" />
    </linearGradient>
    <linearGradient
       inkscape:collect="always"
       xlink:href="#linearGradient3999"
       id="linearGradient949"
       x1="53.825203"
       y1="78.775322"
       x2="79.162407"
       y2="78.775322"
       gradientUnits="userSpaceOnUse" />
    <linearGradient
       inkscape:collect="always"
       xlink:href="#linearGradient3999"
       id="linearGradient1037"
       x1="3.528729"
       y1="22.56958"
       x2="42.219505"
       y2="22.56958"
       gradientUnits="userSpaceOnUse" />
  </defs>
  <sodipodi:namedview
     id="base"
     pagecolor="#ffffff"
     bordercolor="#666666"
     borderopacity="1.0"
     inkscape:pageopacity="0.0"
     inkscape:pageshadow="2"
     inkscape:zoom="31.678384"
     inkscape:cx="0.77339804"
     inkscape:cy="7.9391676"
     inkscape:document-units="mm"
     inkscape:current-layer="layer1"
     showgrid="false"
     units="px"
     inkscape:window-width="1920"
     inkscape:window-height="1009"
     inkscape:window-x="1912"
     inkscape:window-y="-8"
     inkscape:window-maximized="1"
     inkscape:pagecheckerboard="0" />
  <metadata
     id="metadata5">
    <rdf:RDF>
      <cc:Work
         rdf:about="">
        <dc:format>image/svg+xml</dc:format>
        <dc:type
           rdf:resource="http://purl.org/dc/dcmitype/StillImage" />
      </cc:Work>
    </rdf:RDF>
  </metadata>
  <g
     inkscape:label="Layer 1"
     inkscape:groupmode="layer"
     id="layer1"
     transform="translate(0,-292.76639)">
    <g
       transform="matrix(0.08929712,0,0,0.08929712,0.14567924,292.87958)"
       id="g850"
       style="fill-opacity:1.0;fill:url(#linearGradient1037)">
      <path
         inkscape:connector-curvature="0"
         id="path286"
         d="M 20.99869,44.246273 C 17.862056,42.707611 13.606287,38.044857 9.78049,31.955262 8.613859,30.098312 7.25471,27.520628 7.352188,27.349886 c 0.04751,-0.08322 0.03737,-0.106937 -0.02254,-0.05271 -0.112879,0.102186 -1.323544,-2.391835 -1.901993,-3.918188 -1.598223,-4.217225 -1.994,-6.215071 -1.880943,-9.494835 0.09835,-2.853106 0.631769,-4.7669081 1.861375,-6.6782377 2.162529,-3.361487 5.831858,-5.4104563 11.36895,-6.34847168 3.247321,-0.5501149 9.084242,-0.5131777 12.603302,0.0797561 7.430212,1.25193248 11.83491,5.16451498 12.733642,11.31097528 0.20468,1.399819 0.09801,4.506453 -0.202717,5.904009 -0.380161,1.766691 -1.171007,4.28812 -1.316722,4.198062 -0.0782,-0.04833 -0.09663,-0.01908 -0.04284,0.06796 0.179875,0.291044 -1.846912,4.740542 -3.337409,7.326764 -0.254888,0.442268 -0.621587,1.101042 -0.814887,1.463942 -0.395634,0.742769 -2.260763,3.51212 -3.391099,5.035121 -2.803279,3.777103 -5.926597,6.806989 -8.257045,8.010043 -0.511002,0.263795 -0.924666,0.358568 -1.742268,0.399163 -1.003382,0.04982 -1.132351,0.02371 -2.01031,-0.406967 z m 2.992606,-0.98446 c 1.789468,-0.709172 4.34997,-3.008448 6.874727,-6.173354 0.72223,-0.905353 1.378786,-1.768745 1.459012,-1.918649 0.08023,-0.149904 0.212469,-0.23139 0.29387,-0.181081 0.0851,0.05259 0.110354,0.03055 0.05942,-0.05186 -0.04872,-0.07883 0.109336,-0.404774 0.351235,-0.724316 0.514351,-0.679443 1.572221,-2.259219 1.572221,-2.347885 0,-0.0336 0.173019,-0.313199 0.384488,-0.621325 0.759802,-1.107093 2.623193,-4.608882 3.436008,-6.457137 1.803714,-4.101456 2.609624,-7.238311 2.611431,-10.164515 0.0023,-3.65669 -0.97795,-6.3628941 -3.069891,-8.4754952 C 35.858411,4.0199963 32.814471,2.6826799 28.503845,1.9900796 26.678725,1.6968324 21.160898,1.584511 18.941778,1.7954331 12.489206,2.4087346 7.971188,4.7162175 6.093192,8.3575786 5.866674,8.7967889 5.635214,9.1146599 5.578838,9.0639589 c -0.05638,-0.0507 -0.06249,-0.02225 -0.01358,0.06323 0.04891,0.08548 -0.02097,0.417182 -0.155279,0.737114 -0.326054,0.7766631 -0.526153,1.7714391 -0.690319,3.4318561 -0.218343,2.208384 0.09488,4.460508 1.02953,7.402416 0.269309,0.84768 0.498661,1.571392 0.509672,1.608247 0.195239,0.653525 1.658849,3.860589 2.445151,5.357816 1.489036,2.835331 3.786598,6.473897 5.248413,8.311722 3.72406,4.681966 6.142822,6.87512 8.188687,7.424894 0.955644,0.256805 0.825585,0.266607 1.850182,-0.139445 z"
         style="fill:url(#linearGradient1037);stroke-width:0.134021;fill-opacity:1.0" />
    </g>
    <g
       transform="matrix(0.03865774,-0.02292514,0.02292514,0.03865774,-2.7926168,293.39506)"
       id="g864"
       style="fill-opacity:1.0;fill:url(#linearGradient949)">
      <path
         inkscape:connector-curvature="0"
         id="path288"
         d="m 64.919388,113.89269 c -3.486528,-0.3945 -6.35676,-2.15901 -7.229591,-4.44448 -0.778206,-2.03771 -0.37863,-3.34413 2.909167,-9.511593 1.676045,-3.144038 1.505162,-4.812166 -0.927195,-9.051114 -1.107125,-1.929421 -1.241228,-2.315523 -1.233786,-3.552226 0.01013,-1.683779 0.626752,-2.689331 1.716725,-2.799545 0.948899,-0.09595 1.178179,0.19178 3.203855,4.020642 l 1.706001,3.224625 v 2.746721 c 0,1.670302 -0.09455,2.746721 -0.24127,2.746721 -0.132699,0 -0.241271,0.597144 -0.241271,1.326986 v 1.32699 h 3.73969 3.73969 v -1.30976 c 0,-1.316846 0.38965,-2.068026 1.07271,-2.068026 0.17295,0 1.15057,-0.610619 2.17251,-1.356933 1.32751,-0.969472 1.93228,-1.282718 2.11797,-1.097029 0.18569,0.185689 0.14521,0.418141 -0.14178,0.814075 -1.38628,1.912558 -1.67275,2.46228 -1.78029,3.416393 -0.16317,1.44766 0.24295,2.549583 1.87952,5.099693 2.27283,3.54155 2.34676,5.01199 0.35223,7.00652 -1.77165,1.77165 -5.08124,3.0794 -8.55733,3.38134 -0.86847,0.0754 -1.796185,0.16792 -2.061582,0.20552 -0.265398,0.0376 -1.253585,-0.0189 -2.195973,-0.12552 z m 7.142015,-8.77896 v -1.80953 h -3.73969 -3.73969 v 1.64868 c 0,0.90677 0.07238,1.72106 0.160847,1.80953 0.08847,0.0885 1.771326,0.16084 3.739693,0.16084 h 3.57884 z m -14.883279,7.36025 c -2.32083,-1.33105 -3.333797,-3.3128 -3.330539,-6.51581 0.0024,-2.35901 0.2566,-2.99081 2.038543,-5.06667 1.691083,-1.970013 1.791018,-2.226113 1.443638,-3.699471 -0.161649,-0.685616 -0.916836,-2.983719 -1.678193,-5.106897 -1.803502,-5.029384 -2.038139,-6.048912 -1.68982,-7.34247 0.337621,-1.253831 1.730437,-2.687135 3.02217,-3.110026 0.529744,-0.17343 1.906519,-0.37725 3.059503,-0.452934 l 2.096333,-0.137609 0.488892,-1.234046 c 1.329851,-3.356764 2.062468,-9.585588 2.347128,-19.955664 0.116601,-4.247735 0.08679,-5.981334 -0.104892,-6.0998 -0.147284,-0.09103 -0.212299,-0.310107 -0.144478,-0.486845 0.08835,-0.230245 -0.222425,-0.367207 -1.096254,-0.483124 -1.205181,-0.159873 -1.431436,-0.402283 -1.004453,-1.076175 0.152345,-0.240441 0.480917,-0.281683 1.232511,-0.154702 1.070101,0.180793 1.436101,-0.0415 1.443926,-0.876963 0.0028,-0.297216 -0.318953,-0.434735 -1.305465,-0.557992 l -1.30916,-0.163569 0.254764,-0.730816 c 0.199621,-0.572633 0.365485,-0.705441 0.766302,-0.613584 0.281346,0.06448 0.842382,0.192181 1.246748,0.283785 l 0.73521,0.166552 0.425736,-1.769584 c 0.418442,-1.739265 0.4521,-1.789129 1.964499,-2.910337 1.79082,-1.327617 1.63953,-1.494912 2.06805,2.286786 l 0.29389,2.593655 h 0.80935 c 0.76411,0 0.80934,0.04719 0.80934,0.844446 0,0.781903 -0.0549,0.844446 -0.7415,0.844446 -0.57585,0 -0.72362,0.09432 -0.66143,0.422223 0.0483,0.254655 0.34257,0.452521 0.7415,0.498566 0.5534,0.06387 0.66143,0.191946 0.66143,0.784128 0,0.594124 -0.0969,0.707785 -0.60318,0.707785 -0.33174,0 -0.60317,0.09287 -0.60317,0.206368 0,0.113502 -0.35286,0.307393 -0.78413,0.43087 l -0.78413,0.224502 -0.0677,2.946913 -0.0677,2.946913 h -1.319561 -1.31956 v -2.485084 c 0,-2.30001 -0.183648,-3.064131 -0.73643,-3.064131 -0.210151,0 -0.464717,12.299196 -0.503122,24.307973 -0.01708,5.341119 -0.06967,9.711126 -0.11687,9.711126 -0.0472,0 -0.519703,-0.862961 -1.050011,-1.917693 -0.530308,-1.054732 -1.300453,-2.300668 -1.711433,-2.768747 -2.42734,-2.764587 -5.778499,-0.460628 -5.485282,3.771194 0.08947,1.291285 0.293554,1.843239 1.364313,3.689853 1.617887,2.790184 2.129823,4.465733 1.772557,5.801514 -0.143982,0.538332 -0.920705,2.127152 -1.726051,3.530715 -1.805414,3.14648 -2.424286,4.88724 -2.421203,6.81033 0.003,1.85889 0.75401,3.54548 2.13191,4.78763 1.20612,1.0873 0.855935,1.16226 -0.852439,0.18247 z m 9.012367,-13.672403 c -0.02212,-0.0215 -0.0051,-0.971514 0.03783,-2.111113 l 0.07805,-2.071995 h 2.033072 2.03307 v 2.111115 2.111113 h -2.0709 c -1.139002,0 -2.089003,-0.0176 -2.11112,-0.0391 z m 0.08042,-6.656127 v -1.387304 h 1.930162 1.93016 v 1.387304 1.387303 h -1.93016 -1.930162 z m 0,-3.679371 v -1.326986 h 1.930162 1.93016 v 1.326986 1.326986 h -1.93016 -1.930162 z m 0,-3.739688 v -1.447622 h 1.787202 1.78719 l 0.0827,1.347615 c 0.0455,0.741187 0.0374,1.392617 -0.0179,1.447621 -0.0553,0.055 -0.89672,0.100007 -1.86984,0.100007 h -1.769316 z m 0,-3.739689 v -1.326986 h 1.809522 1.80953 v 1.326986 1.326987 h -1.80953 -1.809522 z m 0,-3.619053 v -1.326986 h 1.688892 c 1.61693,0 1.68889,0.02441 1.68889,0.573017 0,0.315159 0.0679,0.912303 0.1508,1.326986 l 0.15079,0.75397 h -1.83969 -1.839682 z m 0.04771,-3.800005 0.07293,-1.266669 1.628572,-0.07134 1.62858,-0.07134 v 1.338009 1.33801 h -1.70151 -1.701496 z m 0.155576,-3.679043 0.08265,-1.327314 h 1.397149 c 1.53613,0 1.68424,0.163738 1.69141,1.869844 l 0.003,0.784128 -1.62857,2.41e-4 -1.628578,2.42e-4 0.08265,-1.327317 z m 0.03799,-3.679699 v -1.387303 h 1.447626 1.44762 v 1.387303 1.387304 h -1.44762 -1.447626 z m 0,-3.800006 V 61.08191 h 1.447626 1.44762 v 1.326986 1.326987 h -1.44762 -1.447626 z"
         style="fill:url(#linearGradient949);stroke-width:0.24127;fill-opacity:1.0" />
    </g>
    <g
       transform="matrix(0.09712126,0,0,0.09712126,-6.0111358,287.64806)"
       id="g845">
      <g
         aria-label="R"
         transform="scale(0.95058977,1.0519785)"
         id="text957"
         style="font-size:27.2062px;line-height:1.25;font-family:'Bebas Neue';-inkscape-font-specification:'Bebas Neue';letter-spacing:0px;word-spacing:0px;fill:url(#linearGradient4001);stroke-width:0.141699">
        <path
           d="m 91.796164,55.586939 h 4.434611 q 2.312527,0 3.373568,1.088248 1.061047,1.061042 1.061047,3.29195 v 1.169867 q 0,2.965476 -1.958851,3.754456 v 0.05441 q 1.088248,0.326474 1.523551,1.333104 0.4625,1.006629 0.4625,2.693413 v 3.346363 q 0,0.816186 0.0544,1.333104 0.0544,0.489711 0.27207,0.979423 h -3.047099 q -0.163237,-0.462505 -0.217649,-0.870598 -0.05441,-0.408093 -0.05441,-1.469135 v -3.482394 q 0,-1.305897 -0.435299,-1.822815 -0.408093,-0.516918 -1.441928,-0.516918 h -1.033836 v 8.16186 h -2.992682 z m 4.08093,8.16186 q 0.897805,0 1.333104,-0.462505 0.462505,-0.462506 0.462505,-1.550754 v -1.469134 q 0,-1.033836 -0.380887,-1.496341 -0.35368,-0.462506 -1.14266,-0.462506 h -1.36031 v 5.44124 z"
           id="path835" />
      </g>
    </g>
  </g>
</svg>
